<svg xmlns="http://www.w3.org/2000/svg" width="2538" height="1075" viewBox="0 0 2538 1075" fill="none"><g clip-path="url(#clip0_1003_124)"><path d="M526.243 1050.51C803.635 1050.51 1028.51 820.826 1028.51 537.5C1028.51 254.173 803.635 24.4907 526.243 24.4907C248.85 24.4907 23.9795 254.173 23.9795 537.5C23.9795 820.826 248.85 1050.51 526.243 1050.51Z" fill="white"></path><path d="M526.254 -0.000488281C235.628 -0.000488281 0.0126953 240.656 0.0126953 537.499C0.0126953 834.343 235.628 1075 526.254 1075C816.881 1075 1052.5 834.343 1052.5 537.499C1052.5 240.656 816.844 -0.000488281 526.254 -0.000488281ZM494.198 1024.9C247.727 1024.9 48.0057 820.866 48.0057 569.346C48.0057 389.619 149.913 234.159 297.84 159.976C191.29 247.152 123.12 380.92 123.12 530.966C123.12 793.089 331.358 1005.6 587.991 1005.6C601.588 1005.6 614.966 1005.15 628.308 1003.88C585.834 1017.54 540.839 1024.9 494.162 1024.9H494.198ZM743.411 867.272C752.11 867.272 760.59 866.824 768.888 866.189C734.711 878.995 697.574 885.902 658.939 885.902C481.88 885.902 338.413 739.328 338.413 558.519C338.413 377.709 481.917 231.135 658.939 231.135C697.574 231.135 734.711 238.303 768.888 251.072C760.59 250.213 752.11 249.989 743.411 249.989C576.55 249.989 441.344 388.088 441.344 558.519C441.344 728.949 576.55 867.272 743.411 867.272ZM679.737 152.211C465.139 152.211 291.041 329.772 291.041 548.998C291.041 768.225 465.103 945.786 679.737 945.786C716.472 945.786 751.927 940.597 785.446 931.039C731.751 955.754 672.098 969.418 609.264 969.418C371.529 969.418 178.753 772.555 178.753 529.697C178.753 286.838 371.492 90.1989 609.264 90.1989C752.549 90.1989 879.495 161.768 957.607 271.68C887.134 197.945 788.626 152.211 679.737 152.211Z" fill="#005EB8"></path><path d="M1295.28 830.045H1280.11V960.266H1295.28V830.045Z" fill="#1B1B1B"></path><path d="M1344.45 960.304V824.931L1437.76 929.018V830.083H1452.2V965.382L1358.92 862.452V960.304H1344.45Z" fill="#1B1B1B"></path><path d="M1501.08 960.304V824.931L1594.36 929.018V830.083H1608.8V965.382L1515.52 862.452V960.304H1501.08Z" fill="#1B1B1B"></path><path d="M1783.17 868.882C1779.77 860.631 1774.87 853.276 1768.29 846.967C1761.93 840.695 1754.47 835.692 1746.21 832.22C1737.73 828.748 1729.03 827.03 1719.9 827.03C1710.76 827.03 1702.28 828.748 1693.98 832.22C1685.5 835.692 1678.04 840.657 1671.68 846.967C1665.32 853.463 1660.21 860.855 1656.81 869.069C1653.41 877.319 1651.73 885.981 1651.73 895.314C1651.73 904.648 1653.41 913.31 1656.81 921.56C1660.21 929.811 1665.29 937.166 1671.68 943.662C1678.26 950.158 1685.68 955.161 1693.98 958.633C1702.28 962.105 1710.98 963.823 1719.9 963.823C1728.82 963.823 1737.73 962.105 1745.99 958.633C1754.47 955.161 1761.93 950.196 1768.29 943.662C1774.87 937.39 1779.77 929.998 1783.17 921.747C1786.35 913.496 1788.07 904.611 1788.07 895.277C1788.07 885.944 1786.38 877.282 1783.17 868.807V868.882ZM1768.29 915.923C1765.73 922.419 1761.93 928.28 1756.81 933.283C1751.92 938.473 1746.21 942.393 1739.82 945.193C1733.46 947.806 1726.88 949.113 1719.86 949.113C1712.84 949.113 1706.26 947.806 1700.12 945.193C1693.76 942.355 1688.02 938.473 1682.94 933.283C1677.86 928.094 1674.02 922.232 1671.46 915.923C1668.91 909.427 1667.63 902.707 1667.63 895.314C1667.63 887.922 1668.91 881.202 1671.46 874.706C1674.24 868.21 1678.04 862.348 1682.94 857.159C1687.84 851.969 1693.54 848.273 1699.72 845.436C1706.08 842.823 1712.88 841.516 1719.9 841.516C1726.91 841.516 1733.71 842.823 1740.07 845.436C1746.21 848.273 1751.95 851.932 1756.85 857.159C1761.93 862.162 1765.77 867.986 1768.33 874.519C1771.11 881.239 1772.35 888.184 1772.35 895.352C1772.35 902.52 1771.07 909.464 1768.33 915.96L1768.29 915.923Z" fill="#1B1B1B"></path><path d="M1867.66 965.344L1813.75 830.045H1830.2L1867.66 929.69L1904.91 830.045H1921.32L1867.66 965.344Z" fill="#1B1B1B"></path><path d="M1993.32 824.931L1935.57 960.454H1952.13L1968.69 920.357H2018.36L2034.92 960.454H2051.48L1993.32 824.931ZM1973.15 907.103L1993.32 859.203L2013.72 907.103H1973.18H1973.15Z" fill="#1B1B1B"></path><path d="M2105.22 960.266V844.829H2069.14V830.045H2156.43V844.829H2120.53V960.266H2105.22Z" fill="#1B1B1B"></path><path d="M2207.05 830.045H2191.88V960.266H2207.05V830.045Z" fill="#1B1B1B"></path><path d="M2381.6 868.882C2378.42 860.631 2373.3 853.276 2366.94 846.967C2360.58 840.695 2353.12 835.692 2344.86 832.22C2336.38 828.748 2327.68 827.03 2318.55 827.03C2309.41 827.03 2300.93 828.748 2292.45 832.22C2284.15 835.692 2276.73 840.657 2270.37 846.967C2264.01 853.463 2258.89 860.855 2255.53 869.069C2252.13 877.319 2250.45 885.981 2250.45 895.314C2250.45 904.648 2252.13 913.31 2255.53 921.56C2258.93 929.811 2264.01 937.166 2270.37 943.662C2276.95 950.158 2284.19 955.161 2292.67 958.633C2300.93 962.105 2309.66 963.823 2318.58 963.823C2327.5 963.823 2336.42 962.105 2344.68 958.633C2353.16 955.161 2360.62 950.196 2366.98 943.662C2373.34 937.39 2378.45 929.998 2381.64 921.747C2385.03 913.496 2386.72 904.611 2386.72 895.277C2386.72 885.944 2385.03 877.282 2381.64 868.807L2381.6 868.882ZM2366.94 915.923C2364.38 922.419 2360.58 928.28 2355.46 933.283C2350.38 938.473 2344.86 942.393 2338.47 945.193C2332.11 947.806 2325.53 949.113 2318.51 949.113C2311.49 949.113 2304.91 947.806 2298.55 945.193C2292.41 942.355 2286.67 938.473 2281.56 933.283C2276.47 928.094 2272.64 922.232 2270.08 915.923C2267.52 909.427 2266.24 902.707 2266.24 895.314C2266.24 887.922 2267.52 881.202 2270.08 874.706C2272.86 868.21 2276.66 862.348 2281.56 857.159C2286.45 851.969 2292.16 848.273 2298.33 845.436C2304.69 842.823 2311.49 841.516 2318.51 841.516C2325.53 841.516 2332.33 842.823 2338.47 845.436C2344.83 848.273 2350.57 851.932 2355.46 857.159C2360.54 862.162 2364.16 867.986 2366.94 874.519C2369.5 881.239 2370.96 888.184 2370.96 895.352C2370.96 902.52 2369.46 909.464 2366.94 915.96V915.923Z" fill="#1B1B1B"></path><path d="M2429.82 960.304V824.931L2523.1 929.018V830.083H2537.54V965.382L2444.29 862.452V960.304H2429.82Z" fill="#1B1B1B"></path><path d="M1669.18 670.901L1569.95 670.901V439.392L1368.25 439.392V670.901H1269.01V148.372L1368.25 148.372V355.688L1569.95 355.688V148.372H1669.18V670.901Z" fill="#1B1B1B"></path><path d="M2521.02 303.024C2506.8 270.057 2487.28 241.235 2462.64 216.744C2437.79 192.029 2408.95 172.727 2376.23 158.839C2343.34 144.951 2308.32 137.82 2271.37 137.82C2234.41 137.82 2199.18 144.988 2166.06 158.839C2133.16 172.727 2104.07 192.029 2079.47 216.296C2054.65 240.787 2035.31 269.647 2020.87 302.575C2006.66 335.766 1999.42 371.308 1999.42 409.239C1999.42 447.171 2006.62 482.526 2020.87 515.492C2035.31 548.458 2054.61 577.056 2079.47 601.585C2104.1 626.076 2133.16 645.154 2166.06 659.49C2199.18 673.602 2234.19 680.733 2271.37 680.733C2308.54 680.733 2343.34 673.565 2376.23 659.49C2408.91 645.191 2437.79 626.113 2462.64 601.585C2487.28 577.094 2506.8 548.458 2521.02 515.306C2535.24 482.116 2542.47 446.797 2542.47 409.277C2542.47 371.756 2535.27 335.99 2521.02 303.024ZM2429.75 476.702C2420.83 497.945 2408.51 516.612 2392.79 532.629C2377.07 548.645 2359.05 561.04 2338.04 570.56C2317.02 579.894 2294.94 584.448 2271.37 584.448C2247.79 584.448 2224.87 579.894 2203.85 570.56C2183.06 561.003 2164.78 548.458 2149.1 532.629C2133.6 516.575 2121.28 497.945 2112.14 476.702C2103.23 455.235 2098.77 432.909 2098.77 409.277C2098.77 385.644 2103.23 362.646 2112.14 341.627C2121.28 320.384 2133.6 301.941 2149.1 286.111C2164.82 270.057 2183.06 257.476 2203.85 248.18C2224.87 238.622 2247.39 234.067 2271.37 234.067C2295.34 234.067 2317.02 238.622 2338.04 248.18C2359.05 257.513 2377.29 270.095 2392.79 286.111C2408.51 301.941 2420.83 320.384 2429.75 341.627C2438.67 362.646 2443.34 385.42 2443.34 409.277C2443.34 433.133 2438.67 455.235 2429.75 476.702Z" fill="#1B1B1B"></path><path d="M1952.66 670.871H1732.98L1848.05 531.614C1852.54 526.014 1857.08 520.227 1861.68 514.254C1866.29 508.28 1870.45 502.12 1874.18 495.736C1877.91 489.389 1880.91 483.08 1883.14 476.845C1885.37 470.61 1886.5 464.6 1886.5 458.738C1886.5 445.26 1882.33 434.583 1874 426.668C1865.66 418.791 1855.39 414.833 1843.19 414.833C1829.22 414.833 1816.79 418.454 1805.83 425.697C1794.86 432.94 1785.65 442.311 1778.2 453.735L1737.84 412.892C1751.04 395.867 1765.99 382.763 1782.65 373.579C1799.36 364.432 1820.01 359.84 1844.68 359.84C1857.62 359.84 1870.16 361.819 1882.22 365.739C1894.29 369.696 1905.07 375.595 1914.54 383.472C1924 391.35 1931.6 401.169 1937.31 412.854C1943.05 424.54 1945.9 438.055 1945.9 453.287C1945.9 463.479 1944.54 473.112 1941.8 482.296C1939.06 491.443 1935.41 500.291 1930.76 508.803C1926.16 517.315 1920.75 525.716 1914.54 534.004C1908.32 542.255 1901.85 550.729 1895.13 559.391L1852.54 613.563H1952.66V670.796V670.871Z" fill="#1B1B1B"></path></g><defs><clipPath id="clip0_1003_124"><rect width="2538" height="1075" fill="white"></rect></clipPath></defs></svg>